# xmcd
#
# Track frame offsets: 
#        150
#        20329
#        36382
#        53936
#        75990
#        98943
#        126097
#        141625
#        160153
#        178982
#        194961
#        210040
#        227069
#
# Disc length: 3344 seconds
#
# Revision: 0
# Processed by: cddbd v1.5.2PL0 Copyright (c) Steve Scherf et al.
# Submitted via: ExactAudioCopy v0.99pb1
#
DISCID=b70d0e0d
DTITLE=Машина Времени - Time Machine
DYEAR=2007
DGENRE=Rock&Roll
TTITLE0=Полный Контакт
TTITLE1=Улетай
TTITLE2=Старый Самолет
TTITLE3=То, Чего Больше Нет
TTITLE4=Слива
TTITLE5=Пой
TTITLE6=Ночь за твоим плечом
TTITLE7=Простите
TTITLE8=Новая весна тебя убьет
TTITLE9=Кил-Бил
TTITLE10=Небо напомнит
TTITLE11=Ангел
TTITLE12=Корабли
EXTD=
EXTT0=
EXTT1=
EXTT2=
EXTT3=
EXTT4=
EXTT5=
EXTT6=
EXTT7=
EXTT8=
EXTT9=
EXTT10=
EXTT11=
EXTT12=
PLAYORDER=
